<svg xmlns="http://www.w3.org/2000/svg" xmlns:xlink="http://www.w3.org/1999/xlink" width="895" zoomAndPan="magnify" viewBox="0 0 671.25 209.249992" height="279" preserveAspectRatio="xMidYMid meet" version="1.0"><defs><g/><clipPath id="7eef9fa880"><path d="M 128 40.425781 L 210 40.425781 L 210 122 L 128 122 Z M 128 40.425781 " clip-rule="nonzero"/></clipPath><clipPath id="60bd0185df"><path d="M 88 82 L 168 82 L 168 168.21875 L 88 168.21875 Z M 88 82 " clip-rule="nonzero"/></clipPath></defs><g fill="#ffffff" fill-opacity="1"><g transform="translate(225.718672, 115.598197)"><g><path d="M 65.53125 -44.75 L 53.875 0 L 40.671875 0 L 33.53125 -29.453125 L 26.140625 0 L 12.9375 0 L 1.59375 -44.75 L 13.265625 -44.75 L 19.703125 -12.171875 L 27.671875 -44.75 L 39.65625 -44.75 L 47.296875 -12.171875 L 53.8125 -44.75 Z M 65.53125 -44.75 "/></g></g></g><g fill="#ffffff" fill-opacity="1"><g transform="translate(292.767096, 115.598197)"><g><path d="M 42.71875 -44.75 L 42.71875 0 L 31.8125 0 L 31.8125 -18.421875 L 14.859375 -18.421875 L 14.859375 0 L 3.953125 0 L 3.953125 -44.75 L 14.859375 -44.75 L 14.859375 -27.21875 L 31.8125 -27.21875 L 31.8125 -44.75 Z M 42.71875 -44.75 "/></g></g></g><g fill="#ffffff" fill-opacity="1"><g transform="translate(339.356826, 115.598197)"><g><path d="M 31.8125 -7.90625 L 15.109375 -7.90625 L 12.4375 0 L 1.015625 0 L 17.21875 -44.75 L 29.828125 -44.75 L 46.03125 0 L 34.484375 0 Z M 29 -16.3125 L 23.453125 -32.703125 L 17.984375 -16.3125 Z M 29 -16.3125 "/></g></g></g><g fill="#ffffff" fill-opacity="1"><g transform="translate(386.328963, 115.598197)"><g><path d="M 36.140625 -44.75 L 36.140625 -36.015625 L 24.28125 -36.015625 L 24.28125 0 L 13.390625 0 L 13.390625 -36.015625 L 1.53125 -36.015625 L 1.53125 -44.75 Z M 36.140625 -44.75 "/></g></g></g><g fill="#ffffff" fill-opacity="1"><g transform="translate(423.995895, 115.598197)"><g><path d="M 14.859375 -44.75 L 14.859375 0 L 3.953125 0 L 3.953125 -44.75 Z M 14.859375 -44.75 "/></g></g></g><g fill="#ffffff" fill-opacity="1"><g transform="translate(442.80737, 115.598197)"><g><path d="M 2.734375 -17.53125 C 2.734375 -21.144531 3.457031 -24.300781 4.90625 -27 C 6.351562 -29.695312 8.363281 -31.789062 10.9375 -33.28125 C 13.507812 -34.769531 16.453125 -35.515625 19.765625 -35.515625 C 24.054688 -35.515625 27.59375 -34.472656 30.375 -32.390625 C 33.15625 -30.304688 34.992188 -27.414062 35.890625 -23.71875 L 29.640625 -23.71875 C 29.046875 -25.84375 27.890625 -27.519531 26.171875 -28.75 C 24.453125 -29.976562 22.316406 -30.59375 19.765625 -30.59375 C 16.453125 -30.59375 13.773438 -29.457031 11.734375 -27.1875 C 9.691406 -24.914062 8.671875 -21.695312 8.671875 -17.53125 C 8.671875 -13.320312 9.691406 -10.066406 11.734375 -7.765625 C 13.773438 -5.472656 16.453125 -4.328125 19.765625 -4.328125 C 22.316406 -4.328125 24.441406 -4.921875 26.140625 -6.109375 C 27.835938 -7.304688 29.003906 -9.007812 29.640625 -11.21875 L 35.890625 -11.21875 C 34.953125 -7.644531 33.082031 -4.785156 30.28125 -2.640625 C 27.476562 -0.492188 23.972656 0.578125 19.765625 0.578125 C 16.453125 0.578125 13.507812 -0.164062 10.9375 -1.65625 C 8.363281 -3.144531 6.351562 -5.25 4.90625 -7.96875 C 3.457031 -10.6875 2.734375 -13.875 2.734375 -17.53125 Z M 2.734375 -17.53125 "/></g></g></g><g fill="#ffffff" fill-opacity="1"><g transform="translate(481.494049, 115.598197)"><g><path d="M 24.421875 0 L 10.703125 -15.421875 L 10.703125 0 L 4.90625 0 L 4.90625 -47.171875 L 10.703125 -47.171875 L 10.703125 -19.4375 L 24.15625 -34.9375 L 32.25 -34.9375 L 15.8125 -17.53125 L 32.328125 0 Z M 24.421875 0 "/></g></g></g><g fill="#ffffff" fill-opacity="1"><g transform="translate(514.317172, 115.598197)"><g><path d="M 36.78125 -18.8125 C 36.78125 -17.707031 36.71875 -16.535156 36.59375 -15.296875 L 8.671875 -15.296875 C 8.878906 -11.859375 10.054688 -9.171875 12.203125 -7.234375 C 14.347656 -5.296875 16.953125 -4.328125 20.015625 -4.328125 C 22.523438 -4.328125 24.617188 -4.910156 26.296875 -6.078125 C 27.972656 -7.253906 29.148438 -8.820312 29.828125 -10.78125 L 36.078125 -10.78125 C 35.148438 -7.414062 33.28125 -4.679688 30.46875 -2.578125 C 27.664062 -0.472656 24.179688 0.578125 20.015625 0.578125 C 16.703125 0.578125 13.738281 -0.164062 11.125 -1.65625 C 8.507812 -3.144531 6.457031 -5.257812 4.96875 -8 C 3.476562 -10.738281 2.734375 -13.914062 2.734375 -17.53125 C 2.734375 -21.144531 3.457031 -24.3125 4.90625 -27.03125 C 6.351562 -29.75 8.382812 -31.84375 11 -33.3125 C 13.613281 -34.78125 16.617188 -35.515625 20.015625 -35.515625 C 23.328125 -35.515625 26.257812 -34.789062 28.8125 -33.34375 C 31.363281 -31.894531 33.328125 -29.90625 34.703125 -27.375 C 36.085938 -24.851562 36.78125 -22 36.78125 -18.8125 Z M 30.796875 -20.015625 C 30.796875 -22.222656 30.304688 -24.125 29.328125 -25.71875 C 28.347656 -27.3125 27.019531 -28.519531 25.34375 -29.34375 C 23.664062 -30.175781 21.804688 -30.59375 19.765625 -30.59375 C 16.828125 -30.59375 14.328125 -29.65625 12.265625 -27.78125 C 10.210938 -25.914062 9.035156 -23.328125 8.734375 -20.015625 Z M 30.796875 -20.015625 "/></g></g></g><g fill="#ffffff" fill-opacity="1"><g transform="translate(553.832405, 115.598197)"><g><path d="M 11.984375 -30.15625 L 11.984375 -9.5625 C 11.984375 -7.863281 12.34375 -6.660156 13.0625 -5.953125 C 13.789062 -5.253906 15.046875 -4.90625 16.828125 -4.90625 L 21.09375 -4.90625 L 21.09375 0 L 15.875 0 C 12.644531 0 10.222656 -0.742188 8.609375 -2.234375 C 6.992188 -3.722656 6.1875 -6.164062 6.1875 -9.5625 L 6.1875 -30.15625 L 1.65625 -30.15625 L 1.65625 -34.9375 L 6.1875 -34.9375 L 6.1875 -43.734375 L 11.984375 -43.734375 L 11.984375 -34.9375 L 21.09375 -34.9375 L 21.09375 -30.15625 Z M 11.984375 -30.15625 "/></g></g></g><g fill="#fff4ea" fill-opacity="1"><g transform="translate(235.861787, 147.859983)"><g><path d="M 5.78125 0 L 2.828125 0 L 2.828125 -22.453125 L 5.78125 -22.453125 Z M 5.78125 0 "/></g></g></g><g fill="#fff4ea" fill-opacity="1"><g transform="translate(244.447055, 147.859983)"><g><path d="M 4.859375 -16.6875 L 4.953125 -14.59375 C 6.222656 -16.1875 7.882812 -16.984375 9.9375 -16.984375 C 13.46875 -16.984375 15.25 -15 15.28125 -11.03125 L 15.28125 0 L 12.421875 0 L 12.421875 -11.046875 C 12.410156 -12.242188 12.132812 -13.128906 11.59375 -13.703125 C 11.0625 -14.285156 10.222656 -14.578125 9.078125 -14.578125 C 8.148438 -14.578125 7.335938 -14.328125 6.640625 -13.828125 C 5.941406 -13.335938 5.398438 -12.691406 5.015625 -11.890625 L 5.015625 0 L 2.15625 0 L 2.15625 -16.6875 Z M 4.859375 -16.6875 "/></g></g></g><g fill="#fff4ea" fill-opacity="1"><g transform="translate(261.864188, 147.859983)"><g><path d="M 1.40625 -8.5 C 1.40625 -10.132812 1.722656 -11.601562 2.359375 -12.90625 C 3.003906 -14.207031 3.898438 -15.210938 5.046875 -15.921875 C 6.191406 -16.628906 7.5 -16.984375 8.96875 -16.984375 C 11.238281 -16.984375 13.078125 -16.195312 14.484375 -14.625 C 15.890625 -13.0625 16.59375 -10.972656 16.59375 -8.359375 L 16.59375 -8.15625 C 16.59375 -6.53125 16.28125 -5.070312 15.65625 -3.78125 C 15.03125 -2.488281 14.140625 -1.484375 12.984375 -0.765625 C 11.828125 -0.046875 10.5 0.3125 9 0.3125 C 6.738281 0.3125 4.90625 -0.472656 3.5 -2.046875 C 2.101562 -3.617188 1.40625 -5.703125 1.40625 -8.296875 Z M 4.265625 -8.15625 C 4.265625 -6.300781 4.691406 -4.8125 5.546875 -3.6875 C 6.410156 -2.570312 7.5625 -2.015625 9 -2.015625 C 10.445312 -2.015625 11.597656 -2.582031 12.453125 -3.71875 C 13.304688 -4.851562 13.734375 -6.445312 13.734375 -8.5 C 13.734375 -10.320312 13.296875 -11.800781 12.421875 -12.9375 C 11.554688 -14.070312 10.40625 -14.640625 8.96875 -14.640625 C 7.5625 -14.640625 6.425781 -14.078125 5.5625 -12.953125 C 4.695312 -11.835938 4.265625 -10.238281 4.265625 -8.15625 Z M 4.265625 -8.15625 "/></g></g></g><g fill="#fff4ea" fill-opacity="1"><g transform="translate(279.867029, 147.859983)"><g><path d="M 7.65625 -3.875 L 11.796875 -16.6875 L 14.703125 -16.6875 L 8.734375 0 L 6.546875 0 L 0.515625 -16.6875 L 3.421875 -16.6875 Z M 7.65625 -3.875 "/></g></g></g><g fill="#fff4ea" fill-opacity="1"><g transform="translate(295.157114, 147.859983)"><g><path d="M 12.453125 0 C 12.296875 -0.332031 12.164062 -0.914062 12.0625 -1.75 C 10.726562 -0.375 9.144531 0.3125 7.3125 0.3125 C 5.664062 0.3125 4.316406 -0.148438 3.265625 -1.078125 C 2.210938 -2.015625 1.6875 -3.195312 1.6875 -4.625 C 1.6875 -6.363281 2.34375 -7.710938 3.65625 -8.671875 C 4.976562 -9.628906 6.835938 -10.109375 9.234375 -10.109375 L 12.015625 -10.109375 L 12.015625 -11.421875 C 12.015625 -12.421875 11.710938 -13.210938 11.109375 -13.796875 C 10.515625 -14.390625 9.640625 -14.6875 8.484375 -14.6875 C 7.460938 -14.6875 6.609375 -14.429688 5.921875 -13.921875 C 5.234375 -13.410156 4.890625 -12.789062 4.890625 -12.0625 L 2.015625 -12.0625 C 2.015625 -12.894531 2.3125 -13.695312 2.90625 -14.46875 C 3.5 -15.25 4.300781 -15.863281 5.3125 -16.3125 C 6.320312 -16.757812 7.4375 -16.984375 8.65625 -16.984375 C 10.570312 -16.984375 12.070312 -16.503906 13.15625 -15.546875 C 14.25 -14.585938 14.816406 -13.265625 14.859375 -11.578125 L 14.859375 -3.90625 C 14.859375 -2.375 15.054688 -1.15625 15.453125 -0.25 L 15.453125 0 Z M 7.71875 -2.171875 C 8.613281 -2.171875 9.460938 -2.398438 10.265625 -2.859375 C 11.066406 -3.328125 11.648438 -3.929688 12.015625 -4.671875 L 12.015625 -8.09375 L 9.78125 -8.09375 C 6.28125 -8.09375 4.53125 -7.070312 4.53125 -5.03125 C 4.53125 -4.132812 4.828125 -3.429688 5.421875 -2.921875 C 6.023438 -2.421875 6.789062 -2.171875 7.71875 -2.171875 Z M 7.71875 -2.171875 "/></g></g></g><g fill="#fff4ea" fill-opacity="1"><g transform="translate(312.327632, 147.859983)"><g><path d="M 4.859375 -16.6875 L 4.953125 -14.59375 C 6.222656 -16.1875 7.882812 -16.984375 9.9375 -16.984375 C 13.46875 -16.984375 15.25 -15 15.28125 -11.03125 L 15.28125 0 L 12.421875 0 L 12.421875 -11.046875 C 12.410156 -12.242188 12.132812 -13.128906 11.59375 -13.703125 C 11.0625 -14.285156 10.222656 -14.578125 9.078125 -14.578125 C 8.148438 -14.578125 7.335938 -14.328125 6.640625 -13.828125 C 5.941406 -13.335938 5.398438 -12.691406 5.015625 -11.890625 L 5.015625 0 L 2.15625 0 L 2.15625 -16.6875 Z M 4.859375 -16.6875 "/></g></g></g><g fill="#fff4ea" fill-opacity="1"><g transform="translate(329.744765, 147.859983)"><g><path d="M 1.46875 -8.484375 C 1.46875 -11.035156 2.070312 -13.085938 3.28125 -14.640625 C 4.5 -16.203125 6.085938 -16.984375 8.046875 -16.984375 C 10.003906 -16.984375 11.550781 -16.316406 12.6875 -14.984375 L 12.6875 -23.6875 L 15.546875 -23.6875 L 15.546875 0 L 12.921875 0 L 12.78125 -1.78125 C 11.644531 -0.382812 10.054688 0.3125 8.015625 0.3125 C 6.085938 0.3125 4.515625 -0.476562 3.296875 -2.0625 C 2.078125 -3.644531 1.46875 -5.710938 1.46875 -8.265625 Z M 4.3125 -8.15625 C 4.3125 -6.257812 4.703125 -4.773438 5.484375 -3.703125 C 6.265625 -2.640625 7.347656 -2.109375 8.734375 -2.109375 C 10.535156 -2.109375 11.851562 -2.921875 12.6875 -4.546875 L 12.6875 -12.21875 C 11.832031 -13.789062 10.523438 -14.578125 8.765625 -14.578125 C 7.359375 -14.578125 6.265625 -14.035156 5.484375 -12.953125 C 4.703125 -11.867188 4.3125 -10.269531 4.3125 -8.15625 Z M 4.3125 -8.15625 "/></g></g></g><g fill="#fff4ea" fill-opacity="1"><g transform="translate(347.547241, 147.859983)"><g><path d="M 1.40625 -8.5 C 1.40625 -10.132812 1.722656 -11.601562 2.359375 -12.90625 C 3.003906 -14.207031 3.898438 -15.210938 5.046875 -15.921875 C 6.191406 -16.628906 7.5 -16.984375 8.96875 -16.984375 C 11.238281 -16.984375 13.078125 -16.195312 14.484375 -14.625 C 15.890625 -13.0625 16.59375 -10.972656 16.59375 -8.359375 L 16.59375 -8.15625 C 16.59375 -6.53125 16.28125 -5.070312 15.65625 -3.78125 C 15.03125 -2.488281 14.140625 -1.484375 12.984375 -0.765625 C 11.828125 -0.046875 10.5 0.3125 9 0.3125 C 6.738281 0.3125 4.90625 -0.472656 3.5 -2.046875 C 2.101562 -3.617188 1.40625 -5.703125 1.40625 -8.296875 Z M 4.265625 -8.15625 C 4.265625 -6.300781 4.691406 -4.8125 5.546875 -3.6875 C 6.410156 -2.570312 7.5625 -2.015625 9 -2.015625 C 10.445312 -2.015625 11.597656 -2.582031 12.453125 -3.71875 C 13.304688 -4.851562 13.734375 -6.445312 13.734375 -8.5 C 13.734375 -10.320312 13.296875 -11.800781 12.421875 -12.9375 C 11.554688 -14.070312 10.40625 -14.640625 8.96875 -14.640625 C 7.5625 -14.640625 6.425781 -14.078125 5.5625 -12.953125 C 4.695312 -11.835938 4.265625 -10.238281 4.265625 -8.15625 Z M 4.265625 -8.15625 "/></g></g></g><g fill="#fff4ea" fill-opacity="1"><g transform="translate(365.550082, 147.859983)"><g/></g></g><g fill="#fff4ea" fill-opacity="1"><g transform="translate(373.364681, 147.859983)"><g><path d="M 16.25 -8.15625 C 16.25 -5.613281 15.664062 -3.566406 14.5 -2.015625 C 13.34375 -0.460938 11.773438 0.3125 9.796875 0.3125 C 7.765625 0.3125 6.171875 -0.332031 5.015625 -1.625 L 5.015625 6.421875 L 2.15625 6.421875 L 2.15625 -16.6875 L 4.765625 -16.6875 L 4.90625 -14.828125 C 6.0625 -16.265625 7.675781 -16.984375 9.75 -16.984375 C 11.75 -16.984375 13.332031 -16.226562 14.5 -14.71875 C 15.664062 -13.207031 16.25 -11.109375 16.25 -8.421875 Z M 13.40625 -8.484375 C 13.40625 -10.359375 13.003906 -11.84375 12.203125 -12.9375 C 11.398438 -14.03125 10.296875 -14.578125 8.890625 -14.578125 C 7.171875 -14.578125 5.878906 -13.8125 5.015625 -12.28125 L 5.015625 -4.296875 C 5.867188 -2.773438 7.171875 -2.015625 8.921875 -2.015625 C 10.296875 -2.015625 11.382812 -2.554688 12.1875 -3.640625 C 13 -4.722656 13.40625 -6.335938 13.40625 -8.484375 Z M 13.40625 -8.484375 "/></g></g></g><g fill="#fff4ea" fill-opacity="1"><g transform="translate(391.074676, 147.859983)"><g><path d="M 12.453125 0 C 12.296875 -0.332031 12.164062 -0.914062 12.0625 -1.75 C 10.726562 -0.375 9.144531 0.3125 7.3125 0.3125 C 5.664062 0.3125 4.316406 -0.148438 3.265625 -1.078125 C 2.210938 -2.015625 1.6875 -3.195312 1.6875 -4.625 C 1.6875 -6.363281 2.34375 -7.710938 3.65625 -8.671875 C 4.976562 -9.628906 6.835938 -10.109375 9.234375 -10.109375 L 12.015625 -10.109375 L 12.015625 -11.421875 C 12.015625 -12.421875 11.710938 -13.210938 11.109375 -13.796875 C 10.515625 -14.390625 9.640625 -14.6875 8.484375 -14.6875 C 7.460938 -14.6875 6.609375 -14.429688 5.921875 -13.921875 C 5.234375 -13.410156 4.890625 -12.789062 4.890625 -12.0625 L 2.015625 -12.0625 C 2.015625 -12.894531 2.3125 -13.695312 2.90625 -14.46875 C 3.5 -15.25 4.300781 -15.863281 5.3125 -16.3125 C 6.320312 -16.757812 7.4375 -16.984375 8.65625 -16.984375 C 10.570312 -16.984375 12.070312 -16.503906 13.15625 -15.546875 C 14.25 -14.585938 14.816406 -13.265625 14.859375 -11.578125 L 14.859375 -3.90625 C 14.859375 -2.375 15.054688 -1.15625 15.453125 -0.25 L 15.453125 0 Z M 7.71875 -2.171875 C 8.613281 -2.171875 9.460938 -2.398438 10.265625 -2.859375 C 11.066406 -3.328125 11.648438 -3.929688 12.015625 -4.671875 L 12.015625 -8.09375 L 9.78125 -8.09375 C 6.28125 -8.09375 4.53125 -7.070312 4.53125 -5.03125 C 4.53125 -4.132812 4.828125 -3.429688 5.421875 -2.921875 C 6.023438 -2.421875 6.789062 -2.171875 7.71875 -2.171875 Z M 7.71875 -2.171875 "/></g></g></g><g fill="#fff4ea" fill-opacity="1"><g transform="translate(408.245195, 147.859983)"><g><path d="M 10.21875 -14.125 C 9.789062 -14.195312 9.320312 -14.234375 8.8125 -14.234375 C 6.945312 -14.234375 5.679688 -13.4375 5.015625 -11.84375 L 5.015625 0 L 2.15625 0 L 2.15625 -16.6875 L 4.9375 -16.6875 L 4.984375 -14.75 C 5.921875 -16.238281 7.242188 -16.984375 8.953125 -16.984375 C 9.515625 -16.984375 9.9375 -16.914062 10.21875 -16.78125 Z M 10.21875 -14.125 "/></g></g></g><g fill="#fff4ea" fill-opacity="1"><g transform="translate(418.926684, 147.859983)"><g><path d="M 12.453125 0 C 12.296875 -0.332031 12.164062 -0.914062 12.0625 -1.75 C 10.726562 -0.375 9.144531 0.3125 7.3125 0.3125 C 5.664062 0.3125 4.316406 -0.148438 3.265625 -1.078125 C 2.210938 -2.015625 1.6875 -3.195312 1.6875 -4.625 C 1.6875 -6.363281 2.34375 -7.710938 3.65625 -8.671875 C 4.976562 -9.628906 6.835938 -10.109375 9.234375 -10.109375 L 12.015625 -10.109375 L 12.015625 -11.421875 C 12.015625 -12.421875 11.710938 -13.210938 11.109375 -13.796875 C 10.515625 -14.390625 9.640625 -14.6875 8.484375 -14.6875 C 7.460938 -14.6875 6.609375 -14.429688 5.921875 -13.921875 C 5.234375 -13.410156 4.890625 -12.789062 4.890625 -12.0625 L 2.015625 -12.0625 C 2.015625 -12.894531 2.3125 -13.695312 2.90625 -14.46875 C 3.5 -15.25 4.300781 -15.863281 5.3125 -16.3125 C 6.320312 -16.757812 7.4375 -16.984375 8.65625 -16.984375 C 10.570312 -16.984375 12.070312 -16.503906 13.15625 -15.546875 C 14.25 -14.585938 14.816406 -13.265625 14.859375 -11.578125 L 14.859375 -3.90625 C 14.859375 -2.375 15.054688 -1.15625 15.453125 -0.25 L 15.453125 0 Z M 7.71875 -2.171875 C 8.613281 -2.171875 9.460938 -2.398438 10.265625 -2.859375 C 11.066406 -3.328125 11.648438 -3.929688 12.015625 -4.671875 L 12.015625 -8.09375 L 9.78125 -8.09375 C 6.28125 -8.09375 4.53125 -7.070312 4.53125 -5.03125 C 4.53125 -4.132812 4.828125 -3.429688 5.421875 -2.921875 C 6.023438 -2.421875 6.789062 -2.171875 7.71875 -2.171875 Z M 7.71875 -2.171875 "/></g></g></g><g fill="#fff4ea" fill-opacity="1"><g transform="translate(436.097202, 147.859983)"><g/></g></g><g fill="#fff4ea" fill-opacity="1"><g transform="translate(443.9118, 147.859983)"><g><path d="M 1.40625 -8.5 C 1.40625 -10.132812 1.722656 -11.601562 2.359375 -12.90625 C 3.003906 -14.207031 3.898438 -15.210938 5.046875 -15.921875 C 6.191406 -16.628906 7.5 -16.984375 8.96875 -16.984375 C 11.238281 -16.984375 13.078125 -16.195312 14.484375 -14.625 C 15.890625 -13.0625 16.59375 -10.972656 16.59375 -8.359375 L 16.59375 -8.15625 C 16.59375 -6.53125 16.28125 -5.070312 15.65625 -3.78125 C 15.03125 -2.488281 14.140625 -1.484375 12.984375 -0.765625 C 11.828125 -0.046875 10.5 0.3125 9 0.3125 C 6.738281 0.3125 4.90625 -0.472656 3.5 -2.046875 C 2.101562 -3.617188 1.40625 -5.703125 1.40625 -8.296875 Z M 4.265625 -8.15625 C 4.265625 -6.300781 4.691406 -4.8125 5.546875 -3.6875 C 6.410156 -2.570312 7.5625 -2.015625 9 -2.015625 C 10.445312 -2.015625 11.597656 -2.582031 12.453125 -3.71875 C 13.304688 -4.851562 13.734375 -6.445312 13.734375 -8.5 C 13.734375 -10.320312 13.296875 -11.800781 12.421875 -12.9375 C 11.554688 -14.070312 10.40625 -14.640625 8.96875 -14.640625 C 7.5625 -14.640625 6.425781 -14.078125 5.5625 -12.953125 C 4.695312 -11.835938 4.265625 -10.238281 4.265625 -8.15625 Z M 4.265625 -8.15625 "/></g></g></g><g fill="#fff4ea" fill-opacity="1"><g transform="translate(461.914642, 147.859983)"><g/></g></g><g fill="#fff4ea" fill-opacity="1"><g transform="translate(469.72924, 147.859983)"><g><path d="M 3.5625 0 L 3.5625 -14.484375 L 0.921875 -14.484375 L 0.921875 -16.6875 L 3.5625 -16.6875 L 3.5625 -18.390625 C 3.5625 -20.179688 4.039062 -21.5625 5 -22.53125 C 5.957031 -23.507812 7.304688 -24 9.046875 -24 C 9.703125 -24 10.359375 -23.914062 11.015625 -23.75 L 10.859375 -21.4375 C 10.367188 -21.53125 9.851562 -21.578125 9.3125 -21.578125 C 8.382812 -21.578125 7.671875 -21.304688 7.171875 -20.765625 C 6.671875 -20.222656 6.421875 -19.445312 6.421875 -18.4375 L 6.421875 -16.6875 L 9.96875 -16.6875 L 9.96875 -14.484375 L 6.421875 -14.484375 L 6.421875 0 Z M 3.5625 0 "/></g></g></g><g fill="#fff4ea" fill-opacity="1"><g transform="translate(480.68817, 147.859983)"><g><path d="M 12.453125 -1.65625 C 11.347656 -0.34375 9.722656 0.3125 7.578125 0.3125 C 5.796875 0.3125 4.4375 -0.203125 3.5 -1.234375 C 2.570312 -2.273438 2.101562 -3.804688 2.09375 -5.828125 L 2.09375 -16.6875 L 4.953125 -16.6875 L 4.953125 -5.90625 C 4.953125 -3.375 5.976562 -2.109375 8.03125 -2.109375 C 10.207031 -2.109375 11.65625 -2.921875 12.375 -4.546875 L 12.375 -16.6875 L 15.234375 -16.6875 L 15.234375 0 L 12.515625 0 Z M 12.453125 -1.65625 "/></g></g></g><g fill="#fff4ea" fill-opacity="1"><g transform="translate(498.089898, 147.859983)"><g><path d="M 6.03125 -20.71875 L 6.03125 -16.6875 L 9.140625 -16.6875 L 9.140625 -14.484375 L 6.03125 -14.484375 L 6.03125 -4.125 C 6.03125 -3.457031 6.164062 -2.957031 6.4375 -2.625 C 6.71875 -2.289062 7.191406 -2.125 7.859375 -2.125 C 8.191406 -2.125 8.644531 -2.1875 9.21875 -2.3125 L 9.21875 0 C 8.46875 0.207031 7.738281 0.3125 7.03125 0.3125 C 5.757812 0.3125 4.796875 -0.0703125 4.140625 -0.84375 C 3.492188 -1.613281 3.171875 -2.707031 3.171875 -4.125 L 3.171875 -14.484375 L 0.140625 -14.484375 L 0.140625 -16.6875 L 3.171875 -16.6875 L 3.171875 -20.71875 Z M 6.03125 -20.71875 "/></g></g></g><g fill="#fff4ea" fill-opacity="1"><g transform="translate(508.401466, 147.859983)"><g><path d="M 12.453125 -1.65625 C 11.347656 -0.34375 9.722656 0.3125 7.578125 0.3125 C 5.796875 0.3125 4.4375 -0.203125 3.5 -1.234375 C 2.570312 -2.273438 2.101562 -3.804688 2.09375 -5.828125 L 2.09375 -16.6875 L 4.953125 -16.6875 L 4.953125 -5.90625 C 4.953125 -3.375 5.976562 -2.109375 8.03125 -2.109375 C 10.207031 -2.109375 11.65625 -2.921875 12.375 -4.546875 L 12.375 -16.6875 L 15.234375 -16.6875 L 15.234375 0 L 12.515625 0 Z M 12.453125 -1.65625 "/></g></g></g><g fill="#fff4ea" fill-opacity="1"><g transform="translate(525.803194, 147.859983)"><g><path d="M 10.21875 -14.125 C 9.789062 -14.195312 9.320312 -14.234375 8.8125 -14.234375 C 6.945312 -14.234375 5.679688 -13.4375 5.015625 -11.84375 L 5.015625 0 L 2.15625 0 L 2.15625 -16.6875 L 4.9375 -16.6875 L 4.984375 -14.75 C 5.921875 -16.238281 7.242188 -16.984375 8.953125 -16.984375 C 9.515625 -16.984375 9.9375 -16.914062 10.21875 -16.78125 Z M 10.21875 -14.125 "/></g></g></g><g fill="#fff4ea" fill-opacity="1"><g transform="translate(536.484683, 147.859983)"><g><path d="M 1.40625 -8.5 C 1.40625 -10.132812 1.722656 -11.601562 2.359375 -12.90625 C 3.003906 -14.207031 3.898438 -15.210938 5.046875 -15.921875 C 6.191406 -16.628906 7.5 -16.984375 8.96875 -16.984375 C 11.238281 -16.984375 13.078125 -16.195312 14.484375 -14.625 C 15.890625 -13.0625 16.59375 -10.972656 16.59375 -8.359375 L 16.59375 -8.15625 C 16.59375 -6.53125 16.28125 -5.070312 15.65625 -3.78125 C 15.03125 -2.488281 14.140625 -1.484375 12.984375 -0.765625 C 11.828125 -0.046875 10.5 0.3125 9 0.3125 C 6.738281 0.3125 4.90625 -0.472656 3.5 -2.046875 C 2.101562 -3.617188 1.40625 -5.703125 1.40625 -8.296875 Z M 4.265625 -8.15625 C 4.265625 -6.300781 4.691406 -4.8125 5.546875 -3.6875 C 6.410156 -2.570312 7.5625 -2.015625 9 -2.015625 C 10.445312 -2.015625 11.597656 -2.582031 12.453125 -3.71875 C 13.304688 -4.851562 13.734375 -6.445312 13.734375 -8.5 C 13.734375 -10.320312 13.296875 -11.800781 12.421875 -12.9375 C 11.554688 -14.070312 10.40625 -14.640625 8.96875 -14.640625 C 7.5625 -14.640625 6.425781 -14.078125 5.5625 -12.953125 C 4.695312 -11.835938 4.265625 -10.238281 4.265625 -8.15625 Z M 4.265625 -8.15625 "/></g></g></g><g clip-path="url(#7eef9fa880)"><path fill="#946c0a" d="M 128.238281 50.816406 C 167.320312 50.816406 198.984375 82.476562 198.984375 121.5625 L 209.371094 121.5625 C 209.371094 76.789062 173.011719 40.425781 128.238281 40.425781 Z M 128.238281 50.816406 " fill-opacity="1" fill-rule="evenodd"/></g><path fill="#ffc61a" d="M 188.46875 121.5625 C 188.46875 88.292969 161.507812 61.328125 128.238281 61.328125 L 128.238281 71.71875 C 155.695312 71.71875 178.082031 93.980469 178.082031 121.5625 Z M 188.46875 121.5625 " fill-opacity="1" fill-rule="evenodd"/><path fill="#efcecb" d="M 167.566406 121.5625 C 167.566406 99.792969 149.882812 82.105469 128.113281 82.105469 L 128.113281 92.496094 C 144.070312 92.496094 157.054688 105.484375 157.054688 121.4375 L 167.445312 121.4375 Z M 167.566406 121.5625 " fill-opacity="1" fill-rule="evenodd"/><g clip-path="url(#60bd0185df)"><path fill="#fff4ea" d="M 99.171875 121.5625 C 99.171875 107.089844 109.808594 95.09375 123.785156 92.992188 L 123.785156 82.476562 C 104.117188 84.703125 88.78125 101.402344 88.78125 121.6875 C 88.78125 130.839844 91.875 139.25 97.191406 145.925781 C 97.070312 145.679688 96.820312 145.433594 96.699219 145.308594 L 92.121094 168.191406 L 114.015625 158.417969 L 113.890625 158.417969 C 118.34375 160.152344 123.167969 161.140625 128.359375 161.140625 C 148.398438 161.140625 165.09375 146.050781 167.445312 126.632812 L 156.929688 126.632812 C 154.582031 140.238281 142.707031 150.75 128.359375 150.75 C 112.40625 150.75 99.417969 137.765625 99.417969 121.808594 Z M 97.191406 145.925781 C 97.441406 146.175781 97.5625 146.421875 97.8125 146.667969 C 97.5625 146.421875 97.441406 146.175781 97.191406 145.925781 Z M 97.8125 146.667969 C 98.058594 146.917969 98.183594 147.164062 98.429688 147.410156 C 98.183594 147.164062 98.058594 146.917969 97.8125 146.667969 Z M 98.429688 147.410156 C 98.675781 147.660156 98.800781 147.90625 99.046875 148.152344 C 98.800781 147.90625 98.675781 147.660156 98.429688 147.410156 Z M 99.046875 148.152344 C 99.296875 148.402344 99.417969 148.648438 99.667969 148.773438 C 99.417969 148.523438 99.296875 148.277344 99.046875 148.152344 Z M 99.667969 148.894531 C 99.914062 149.144531 100.039062 149.265625 100.285156 149.515625 C 100.039062 149.265625 99.914062 149.144531 99.667969 148.894531 Z M 100.285156 149.636719 C 100.53125 149.886719 100.65625 150.007812 100.902344 150.257812 C 100.65625 150.007812 100.53125 149.886719 100.285156 149.636719 Z M 101.644531 150.875 C 101.894531 151.121094 102.140625 151.246094 102.386719 151.492188 C 102.140625 151.246094 101.894531 151.121094 101.644531 150.875 Z M 102.386719 151.492188 C 102.636719 151.742188 102.882812 151.863281 103.128906 152.113281 C 102.882812 151.863281 102.636719 151.742188 102.386719 151.492188 Z M 103.128906 152.113281 C 103.378906 152.359375 103.625 152.484375 103.871094 152.730469 C 103.625 152.484375 103.378906 152.359375 103.128906 152.113281 Z M 103.871094 152.730469 C 104.367188 153.101562 104.859375 153.472656 105.355469 153.84375 C 104.859375 153.472656 104.367188 153.101562 103.871094 152.730469 Z M 105.355469 153.84375 C 105.601562 153.96875 105.851562 154.214844 106.097656 154.339844 C 105.851562 154.214844 105.601562 153.96875 105.355469 153.84375 Z M 106.097656 154.339844 C 106.34375 154.460938 106.59375 154.707031 106.839844 154.832031 C 106.59375 154.707031 106.34375 154.460938 106.097656 154.339844 Z M 106.839844 154.832031 C 107.085938 154.957031 107.335938 155.203125 107.582031 155.328125 C 107.335938 155.203125 107.085938 154.957031 106.839844 154.832031 Z M 108.449219 155.820312 C 108.695312 155.945312 108.941406 156.070312 109.3125 156.316406 C 109.066406 156.191406 108.820312 156.070312 108.449219 155.820312 Z M 109.3125 156.316406 C 109.5625 156.441406 109.808594 156.5625 110.179688 156.6875 C 109.933594 156.5625 109.683594 156.441406 109.3125 156.316406 Z M 110.179688 156.8125 C 110.425781 156.933594 110.675781 157.058594 111.046875 157.183594 C 110.796875 157.058594 110.550781 156.933594 110.179688 156.8125 Z M 111.046875 157.304688 C 111.292969 157.429688 111.539062 157.554688 111.910156 157.675781 C 111.664062 157.554688 111.417969 157.429688 111.046875 157.304688 Z M 111.910156 157.675781 C 112.160156 157.800781 112.53125 157.925781 112.777344 158.046875 C 112.53125 157.925781 112.160156 157.800781 111.910156 157.675781 Z M 112.777344 158.046875 C 113.023438 158.171875 113.394531 158.296875 113.644531 158.417969 C 113.394531 158.296875 113.023438 158.171875 112.777344 158.046875 Z M 108.449219 155.945312 C 108.199219 155.820312 107.953125 155.574219 107.582031 155.449219 Z M 101.523438 150.875 C 101.273438 150.628906 101.027344 150.503906 100.902344 150.257812 Z M 101.523438 150.875 " fill-opacity="1" fill-rule="evenodd"/></g><path fill="#fff4ea" d="M 113.890625 115.253906 C 116.734375 115.253906 119.085938 117.605469 119.085938 120.449219 C 119.085938 123.292969 116.734375 125.644531 113.890625 125.644531 C 111.046875 125.644531 108.695312 123.292969 108.695312 120.449219 C 108.695312 117.605469 111.046875 115.253906 113.890625 115.253906 Z M 142.089844 115.253906 C 144.933594 115.253906 147.285156 117.605469 147.285156 120.449219 C 147.285156 123.292969 144.933594 125.644531 142.089844 125.644531 C 139.246094 125.644531 136.894531 123.292969 136.894531 120.449219 C 136.894531 117.605469 139.246094 115.253906 142.089844 115.253906 Z M 127.988281 115.253906 C 130.835938 115.253906 133.183594 117.605469 133.183594 120.449219 C 133.183594 123.292969 130.835938 125.644531 127.988281 125.644531 C 125.144531 125.644531 122.796875 123.292969 122.796875 120.449219 C 122.796875 117.605469 125.144531 115.253906 127.988281 115.253906 Z M 127.988281 115.253906 " fill-opacity="1" fill-rule="evenodd"/></svg>